<?xml version="1.0" encoding="utf-8"?>
<!-- Generator: Adobe Illustrator 22.0.0, SVG Export Plug-In . SVG Version: 6.00 Build 0)  -->
<svg version="1.1" id="Capa_1" xmlns="http://www.w3.org/2000/svg" xmlns:xlink="http://www.w3.org/1999/xlink" x="0px" y="0px"
	 viewBox="0 0 512 512" style="enable-background:new 0 0 512 512;" xml:space="preserve">
<style type="text/css">
	.st0{fill:#F1EEE2;}
</style>
<g>
	<path id="Behance" class="st0" d="M462.4,141.8H334.1v-31.9h128.3L462.4,141.8C462.4,141.8,462.4,141.8,462.4,141.8z M248.7,272.5
		c8.3,12.8,12.4,28.4,12.4,46.7c0,18.9-4.7,35.9-14.2,50.8c-6,9.9-13.5,18.3-22.5,25c-10.1,7.8-22.1,13.1-36,16
		c-13.8,2.9-28.8,4.3-45,4.3H0V96.7h153.9c38.8,0.6,66.3,11.9,82.5,33.9c9.7,13.5,14.6,29.8,14.6,48.6c0,19.5-4.9,35.1-14.7,46.9
		c-5.5,6.6-13.6,12.7-24.3,18.1C228.2,250.3,240.5,259.6,248.7,272.5z M73.5,222.3h67.4c13.9,0,25.1-2.6,33.7-7.9
		c8.6-5.3,12.9-14.6,12.9-28c0-14.8-5.7-24.7-17.1-29.4c-9.8-3.3-22.4-5-37.6-5H73.5V222.3z M194,314.6c0-16.5-6.8-28-20.3-34.1
		c-7.5-3.5-18.2-5.3-31.9-5.4H73.5V360h67.3c13.8,0,24.5-1.8,32.3-5.6C187,347.4,194,334.2,194,314.6z M510,262.8
		c1.5,10.4,2.3,25.5,2,45.3H345.8c0.9,22.9,8.8,39,23.8,48.1c9.1,5.8,20,8.6,32.9,8.6c13.6,0,24.6-3.4,33.1-10.5
		c4.6-3.7,8.7-9,12.3-15.7h60.9c-1.6,13.5-8.9,27.3-22.1,41.2c-20.4,22.2-49,33.3-85.8,33.3c-30.4,0-57.2-9.4-80.4-28.1
		c-23.2-18.8-34.8-49.2-34.8-91.4c0-39.6,10.4-69.9,31.4-91c21-21.1,48.2-31.6,81.6-31.6c19.8,0,37.7,3.5,53.7,10.7
		c15.9,7.1,29,18.4,39.4,33.8C501.1,229.1,507.2,244.9,510,262.8z M450,268.7c-1.1-15.9-6.4-27.9-15.9-36.1
		c-9.5-8.2-21.3-12.4-35.4-12.4c-15.3,0-27.2,4.4-35.6,13.1c-8.5,8.7-13.7,20.4-15.9,35.3L450,268.7L450,268.7z"/>
</g>
</svg>
