<?xml version="1.0" encoding="utf-8"?>
<!-- Generator: Adobe Illustrator 22.0.0, SVG Export Plug-In . SVG Version: 6.00 Build 0)  -->
<svg version="1.1" id="Capa_1" xmlns="http://www.w3.org/2000/svg" xmlns:xlink="http://www.w3.org/1999/xlink" x="0px" y="0px"
	 viewBox="0 0 512 512" style="enable-background:new 0 0 512 512;" xml:space="preserve">
<style type="text/css">
	.st0{fill:#F1EEE2;}
</style>
<path class="st0" d="M256,0C114.6,0,0,114.6,0,256s114.6,256,256,256s256-114.6,256-256S397.4,0,256,0z M420.4,126.8
	c26.2,33.3,42.6,74.4,44.7,119.4c-30.3-6.4-58.9-9.6-85.6-9.6l0,0h-0.2c-21.5,0-41.7,2-60.7,5.3c-4.6-11.3-9.3-22.2-14-32.6
	C346.9,190.7,387.6,164.3,420.4,126.8z M256,46.6c49.4,0,94.7,17.3,130.6,46c-27.5,32.9-63.7,56.7-102.8,73.5
	c-27.5-53.2-54.1-91.2-72.3-114.5C225.9,48.4,240.7,46.6,256,46.6z M163.5,68.4c14.5,17.2,43.6,54.9,74.7,113.9
	c-63.2,18.8-126.9,23.2-165.4,23.2c-1.1,0-2.2,0-3.2,0l0,0c-6.5,0-12.1-0.1-16.7-0.2C67.9,145.2,109,95.4,163.5,68.4z M46.6,256
	c0-1,0-2,0.1-3c6,0.2,13.6,0.4,22.9,0.4h0.1c42.1-0.3,115.6-3.8,190.1-27.3c4.1,8.9,8.1,18.1,12.1,27.7
	c-49.7,16.6-88.9,43.1-117.9,69.5c-27.9,25.4-46.7,50.6-57.8,67.4C65.3,354.2,46.6,307.4,46.6,256z M256,465.4
	c-46.6,0-89.6-15.4-124.4-41.3c7.4-12.2,23.3-35.6,48.6-59.8c26-24.9,61.9-50.6,108.8-65.9c15.9,44.7,30.4,95.7,41.3,153.2
	C307.2,460.5,282.2,465.4,256,465.4z M374.5,428.2c-10.6-52-24-98.9-38.6-140.7c13.6-2,27.9-3.1,42.9-3.1h0.5l0,0l0,0
	c25,0,52.4,3.1,82.2,9.9C451.3,349.7,419.2,397.4,374.5,428.2z"/>
</svg>
