<?xml version="1.0" encoding="utf-8"?>
<!-- Generator: Adobe Illustrator 22.0.0, SVG Export Plug-In . SVG Version: 6.00 Build 0)  -->
<svg version="1.1" id="Layer_1" xmlns="http://www.w3.org/2000/svg" xmlns:xlink="http://www.w3.org/1999/xlink" x="0px" y="0px"
	 viewBox="0 0 100 100" style="enable-background:new 0 0 100 100;" xml:space="preserve">
<style type="text/css">
	.st0{fill:#F1F1F1;}
</style>
<g>
	<g>
		<g>
			<path class="st0" d="M97.9,70.7c0,0.6-0.4,1-1,1H41.2c-0.6,0-1.2,0.4-1.5,0.9l-15,24.5c-0.3,0.5-0.9,0.6-1.4,0.4L18.9,95
				c-0.5-0.3-0.6-0.9-0.4-1.3l12.8-21.1c0.3-0.5,0.1-0.9-0.5-0.9H2.3c-0.6,0-1-0.4-1-1v-5.3c0-0.6,0.5-1,1-1h32.9
				c0.5,0,1.2-0.4,1.5-0.9l17.4-28.2c0.3-0.5,0.1-0.9-0.5-0.9H2.3c-0.6,0-1-0.5-1-1v-5.3c0-0.5,0.5-1,1-1H58c0.5,0,1.2-0.4,1.5-0.9
				L74.6,1.9c0.3-0.5,0.9-0.6,1.4-0.4L80.4,4c0.5,0.3,0.6,0.9,0.3,1.3L67.8,26.4c-0.3,0.5-0.1,0.9,0.5,0.9H97c0.6,0,1,0.5,1,1v5.3
				c0,0.5-0.4,1-1,1H63.9c-0.5,0-1.2,0.4-1.5,0.9L45.2,63.6c-0.3,0.5-0.1,0.9,0.5,0.9H97c0.6,0,1,0.4,1,1L97.9,70.7L97.9,70.7z"/>
		</g>
	</g>
</g>
</svg>
