<?xml version="1.0" standalone="no"?>
<!DOCTYPE svg PUBLIC "-//W3C//DTD SVG 20010904//EN"
 "http://www.w3.org/TR/2001/REC-SVG-20010904/DTD/svg10.dtd">
<svg version="1.0" xmlns="http://www.w3.org/2000/svg"
 width="1000.000000pt" height="1000.000000pt" viewBox="0 0 1000.000000 1000.000000"
 preserveAspectRatio="xMidYMid meet">
<metadata>
Created by potrace 1.11, written by Peter Selinger 2001-2013
</metadata>
<g transform="translate(0.000000,1000.000000) scale(0.100000,-0.100000)"
fill="#000000" stroke="none">
<path d="M8150 9573 c-138 -171 -349 -430 -405 -498 -43 -53 -219 -269 -259
-320 -17 -21 -45 -55 -61 -75 -17 -19 -67 -80 -110 -135 -44 -55 -82 -102 -85
-105 -3 -3 -44 -52 -90 -110 -47 -58 -87 -107 -90 -110 -3 -3 -32 -39 -65 -80
-32 -41 -62 -77 -65 -80 -3 -3 -50 -61 -105 -130 -55 -69 -104 -130 -110 -136
-5 -6 -129 -157 -275 -337 l-265 -325 -2880 -1 c-1584 0 -2888 0 -2897 -1 -17
0 -18 -28 -18 -449 l0 -449 2525 0 c1389 0 2525 -4 2525 -9 0 -4 -24 -37 -53
-73 -64 -79 -78 -97 -97 -120 -8 -10 -47 -58 -87 -106 -39 -49 -136 -168 -215
-265 -163 -199 -398 -489 -636 -783 -90 -110 -171 -210 -181 -221 -9 -11 -45
-56 -80 -100 -36 -44 -71 -87 -78 -95 -7 -8 -37 -44 -65 -80 -29 -36 -57 -70
-63 -76 -5 -6 -106 -131 -224 -276 l-214 -265 -1529 1 -1528 1 0 -451 0 -451
1155 0 c636 0 1157 -2 1159 -4 3 -3 -333 -422 -412 -514 -9 -11 -34 -42 -56
-70 -22 -27 -42 -52 -45 -55 -3 -3 -51 -61 -106 -130 -55 -69 -108 -134 -119
-145 -10 -11 -30 -36 -45 -55 -14 -20 -65 -83 -112 -140 -104 -127 -430 -529
-479 -590 -19 -24 -79 -97 -133 -163 l-99 -121 34 -27 c18 -15 175 -142 348
-283 l315 -256 21 23 c12 12 190 229 395 482 440 543 452 559 459 565 3 3 62
75 130 160 69 85 132 164 142 175 9 11 139 171 288 355 150 184 281 346 293
360 78 92 324 399 337 419 7 12 442 14 2909 14 l2901 0 0 448 c0 421 -1 449
-17 450 -10 0 -1149 1 -2530 1 -2292 1 -2512 3 -2501 17 7 9 24 30 38 47 29
37 37 46 115 144 33 41 62 77 65 80 4 3 33 39 65 80 33 41 62 77 65 80 4 3 33
39 65 80 33 41 63 77 66 80 3 3 102 124 220 270 118 146 288 355 378 465 89
110 177 218 194 239 18 22 48 59 67 82 19 23 49 60 66 81 75 94 568 699 579
712 11 11 269 13 1539 13 l1526 -1 0 450 0 449 -52 1 c-29 0 -552 0 -1161 0
-861 0 -1107 3 -1100 12 32 42 90 114 99 122 6 6 64 78 130 160 65 83 124 155
130 160 6 6 46 55 90 110 43 55 81 102 84 105 6 6 35 42 195 240 60 74 111
137 114 140 4 3 62 75 131 160 69 85 177 218 240 296 63 78 149 183 190 234
41 51 103 127 138 169 34 41 62 78 62 81 -1 3 -24 22 -53 42 -29 21 -63 48
-77 61 -14 12 -95 79 -180 147 -85 69 -157 127 -160 130 -3 3 -39 32 -80 65
-41 33 -88 72 -104 87 -17 16 -35 28 -40 27 -6 0 -49 -48 -96 -106z"/>
</g>
</svg>
